<svg width="258" height="104" viewBox="0 0 258 104" xmlns="http://www.w3.org/2000/svg"><path d="M19.76 47.56l.36.23 1.66-.3c.09.52.64.9 1.66 1.17l.58 1.64c-2.05.36-2.96 1.2-2.73 2.52l-.24 2.07.36.22.05.28-.57 1.84.43.78-.13.91c.53 3 1.27 4.41 2.21 4.25l.07 2.02.9 5.04.75 1.04-1 4.24L27 81.95l.35 1.97.02 1.75c.06.36 1.16 1.13 3.3 2.3l-1.15 3.4a9.73 9.73 0 01-4.52-.94l-3.5 1.5a9.47 9.47 0 00-3.84-.5l-1.77 1.5-1.7.3c-1.37.24-2.69-.11-3.95-1.05l-.1-.59 2.5-2.15.69-2.76-.72-2.47c-.17-.95-.07-1.45.3-1.52l-1.4-4.67.24-.33-.05-.27-1.15-3.3-.7-3.93-.32-.23.22-.32-.1-.56c-.16-.94-.44-1.38-.83-1.31l.35-4.7-.85-1.59-.14-4.04c-.24-1.35-1.5-2.39-3.76-3.11l-.62-1.92-.05-.28a65.6 65.6 0 019.65-2.87l.22-.33 3.16-.27c2.03-.46 3.03-.83 2.98-1.1zm6.37-5.44l-.23.1-1.9.09-.1.14-.12.03-1.05-.2-2.03.74-.9-.1-.1.15-.13.02-.9-.1-2.5.95-.93-.21-1.35.24c-.88.28-1.3.52-1.27.73-.75.04-1.14-.01-1.17-.18-.8.23-1.28.44-1.41.63-1.74.22-2.62.25-2.65.09l-.33.31-.78-.12-.37.07-.33.31-.61.1-1.33.37-.15-.1-.12.02-1.09.32-.98.17H1l-.7-3.98h1.3l.84-.28.14.1.13-.02.47-.21.39.06.35-.2 3.75-.27 1.1-.32.48-.09.1-.14.15.1 1.23-.22 1.41-.63 1.81.19 1.09-.32.12-.02 1.8.06 1.03-.56 1.23-.22 1.32-.48 1.64-.04.5-.08.7-.26.65.02.24-.05.1-.14.15.1.49-.09.47-.2.64 3.62zm10 56.12l-.92.26-.14-.1-.12.02c-.2.2-.83.48-1.89.84l-.9-.1-.72.26c-1.16.12-1.77.01-1.83-.32-.47.6-1.08.96-1.84 1.1-1.6.02-3.22.18-4.87.47l-.92.54-.36.07c-.44.07-.83.01-1.18-.18l-.7.38-.8-.24-.55.48-.14-.1-.12.02-.97.3c-.26.04-.66-.06-1.2-.3l-.98.17-.51-.04-.47.21-1.52.02c-.4.58-.86.91-1.35 1l-.67-3.63c.61-.23 1.48-.66 2.6-1.28.88.18 2.1.14 3.65-.14l1.2-.46c.73.12 1.5.11 2.27-.02l-.02-.13 1.32.28 3.1-1.18.85-.15.89-.03c-.03-.12.12-.28.42-.46l.15.1.12-.02.72-.25c1.93-.09 2.9-.05 2.94.12l.49-.1.1-.14.12-.02c.13.23.4.31.8.24l.5-.09c.25-.27 1.17-.68 2.77-1.21l.67 3.81zm-8.18-52.12c2.11-.37 3.9-.2 5.39.5a4.56 4.56 0 002.4-1.3l3.14-.56c5.02-.31 7.61.01 7.78.98.38 2.13 1.91 3.63 4.6 4.49a21.27 21.27 0 013.43 6.12l1.87 2.3-.22.36.14.83c5.86 4.45 9.01 7.9 9.44 10.36l-.22.33.05.3.53 1.37.12 2.33c.76-.13 1.32.84 1.69 2.9.37 2.1.28 3.29-.26 3.58l.32.22.16.87-.4.95.42.82-.27.05-1.35.8c-6.28-.18-9.6-1.35-9.98-3.5-.66.11-1.43-.92-2.33-3.11-.37.06-.62-.29-.75-1.05-.95.17-1.59-.7-1.92-2.6-2.86-1.83-4.44-3.6-4.75-5.33-.29.05-1.43-1.4-3.44-4.37-.49.08-1.38-1.12-2.66-3.63-1.23-.1-2.88-2.25-4.95-6.45-4.22-3.75-6.78-5.53-7.7-5.37-.56.1-1.1-.2-1.62-.9.96-1.15 1.4-1.92 1.34-2.29zm28.3-4.1c1.05-.19 2.73-.1 5.04.28l.28-.05.98-1.06 1.14-.2c1.44-.25 2.39.16 2.86 1.24.13.76-.35 1.34-1.44 1.75.05.3-.74 1.32-2.38 3.05l.1 2.33 1.05 4.2.36 8.72.26 1.45c-1.68-.62-2.69-1.9-3.03-3.88l.33-2.98c-.73-.9-1.4-2.45-2-4.63l.19-2.38c-.08-.45-.86-1-2.35-1.65l-.48-1.08.23-.33-.3-1.72-2.28-1.35-.2-1.14 1.65-.57zm-21.7 14.96c.84.87 2.1 3 3.77 6.38l.6 3.39-.36 1.23 2 4.63.05.31c.27 1.58.3 3.92.06 7 .37-.06 1.07 1.19 2.12 3.76l.32.22.31-.05.23-.33.28-.04c1.6.22 2.44.56 2.52 1l.25 1.42-.25 1.83-6.38.52c-1.12.26-1.65.55-1.59.88l-1.24-.38-1.67.58-.66-.46-.25-1.41c2.06-1.66 2.92-3.47 2.57-5.44l.4-.96-.63-1.95 1.35-4.04-.25-1.42-3.05-5.62-.48-4.32-.28.04.23-.32-.7-3.97.25-.36-.35-.23-.05-.27c.22-.93.51-1.47.89-1.62zm34.56-22.53l-1 .46-.72-.5c-.5.08-.84.06-1.03-.08l-.37.07-.55.48-.15-.1-.24.04c-.41.07-.6.23-.55.48l-.37.06-.05-.25-.36.07-.3.43c-.93.08-1.9.04-2.95-.11l-.61.1c-.58.1-1.64.6-3.18 1.45-.87-.18-2.1-.13-3.65.14l-1.19.46a6.71 6.71 0 00-2.28.03l.02.12-1.32-.28-3.09 1.18-.86.16-.88.02c.02.13-.13.28-.43.46l-.15-.1-.12.02-.72.25c-1.93.1-2.9.05-2.94-.11l-.49.08-.1.15-.12.02c-.13-.23-.4-.31-.8-.24l-.5.09c-.27.28-1.25.7-2.95 1.28l-1.42-.13-.37.07-2.02.73-.62.11c-.34-.28-.99-.33-1.93-.16-.66.36-1.45.63-2.4.8l-.64-.78-.09-.49c.25-.04.35-.15.33-.31l-.03-.12-.4-.82.31-.44-.02-.12c-.02-.12-.2-.22-.56-.28l-.14-.1-.03-.13.78-.64c1.47-.18 2.48-.23 3.02-.15l.37-.07.1-.14.78.11.43-.45.25-.05c.32.29 1 .33 2.05.15l2.67-.72.14.1.12-.02c.2-.2.83-.49 1.89-.84l.9.09.72-.25c1.16-.12 1.77-.02 1.83.3a2.91 2.91 0 011.84-1.08c1.6-.03 3.23-.19 4.87-.47l.92-.55.37-.06c.43-.08.82-.02 1.17.17l.7-.38.8.24.55-.47.14.1.13-.02.96-.3c.27-.05.66.05 1.2.3l.98-.18.51.04.47-.21 1.52-.02c.4-.57.86-.9 1.35-1l.37-.06c.27-.05.58.03.93.22l.12-.02c.8-.4 1.51-.65 2.15-.76l1.9-.08.7-.26.64.02.1-.15 2.97-.1.62 3.5zm9.99 56.66l-.41.2-.37.06-1.54-.1-1.19.46-.51-.04-1.66.67-.15-.1-.12.02-.82.4-.39-.06-.82.4-1.17-.17-1.97.35h-.76l-1.68.55-2.18-.12-1.93.6-.88.02-.47.21-.64-.01-.55.48-.68-.27c-.93.25-1.51.53-1.76.82l-1.89.08-1.06.44-.44-.3-.37.06-.3.44-.52-.04-.71.26-1.67-.1.02.13-2.07-.27-2.46 1.2-3.51.24c-.04.26-.26.42-.67.5l-.5.08c-.43.08-.82.02-1.17-.17l-2.52.82c-1.15.2-1.77.02-1.87-.55l.03-.52a3.54 3.54 0 00-.96-1.86c.13-.7.65-1.13 1.55-1.29l1.93.17.5-.09 2.25-.14 1.31-.49h.76l3.59-1.27.61-.1c.29.28 1.5.23 3.66-.15l1.48-.26 1.08-.32c1.18-.07 1.77-.05 1.8.07l2.41-.68.9.1c.35-.32 1.07-.57 2.16-.77l.12-.02 1.3.15.98-.17 1.51-.77 1.48-.26.52.03.1-.14 1.87-.2 3-.92 3.83.09 1.33-.36.79.11.12-.02.1-.14 1.03.07c-.02-.1.18-.27.61-.49l.6 3.45zm.03-54.01c7.14-.74 10.76-.89 10.83-.46l.3 1.73-1.64 2.35.2 1.14.66.49.07 2.05c.62 2.64 1.23 3.9 1.85 3.8l-.03 1.5.1.55 1.32 2.43c.94-.17 2.65 2.28 5.13 7.34l.15 2.64c.4-.07.76.85 1.1 2.76l1.38 1.22a7.1 7.1 0 00-.2 3.87l.35 2c-.95 3.9-1.77 5.9-2.46 6.02l-3.9 1.3c-1.92.14-3.23-.02-3.93-.49l-.02-1.77a5.9 5.9 0 00-2.81-4.24l.23-.32-.1-.56c-3.41-7.11-6-11.78-7.77-13.98l.44-.97a29.19 29.19 0 00-4.43-8.36l-.5-2.86c-.31-1.74-1.9-2.93-4.76-3.57l-.89-1.62c.25-1.21.53-1.84.84-1.9l.28-.04 2.4.14 1.42-.25 1.9-.9 1.78-.03.7-1.01zm24-4.24l1.17-.2c1.7-.3 2.64.02 2.8.96.38 2.12-.29 3.32-2 3.62l-2.96 4.94c.65 3.69.44 6.38-.64 8.07l.18 2.64c.17.94.43 1.38.8 1.32a33.2 33.2 0 00-.96 7.85l-.3.05-.94-.44.83-1.92c-1-1.24-1.78-2.87-2.35-4.89v-1.78l-.46-.8c-.27-1.56.11-3.3 1.15-5.22l-.12-4.1-.25-1.42c-.3-1.64-1.39-2.82-3.3-3.54l-1.76-1.75.12-.91 9-2.48zm16.85 51.1l-.27.08-.9-.1-.72.26c-1.17.12-1.78.02-1.84-.3-.46.58-1.08.94-1.84 1.08-1.6.03-3.22.18-4.86.47l-.92.55-.37.06c-.43.08-.82.02-1.17-.17l-.7.37-.8-.23-.55.47-.15-.1-.12.02-.96.3c-.27.05-.67-.05-1.2-.3l-.98.18-.52-.04-.47.21-1.52.01c-.4.58-.85.92-1.35 1l-.37.07c-.26.05-.57-.03-.92-.22l-.13.02c-.8.4-1.51.65-2.15.76l-1.89.08-.71.26-.64-.02-.1.15-3.54.11-1.63.8-.89.03-1.3.48-.81-.24-.1.15-.12.02-.52-.04-1.04.57-.44-.3-.59.22-1.23.22-.46.11-.61-3.47c.5-.13.93-.3 1.28-.48l2.77-.11c.07-.35.16-.54.29-.56l1.1-.2.1-.14 1.74.46.12-.02 3.3-1.47.72.5c.49-.08.83-.06 1.03.08l.37-.07.55-.48.14.1.25-.04c.4-.07.59-.23.55-.48l.37-.06.04.24.37-.06.3-.44c.92-.07 1.9-.03 2.94.12l.62-.1c.57-.1 1.63-.6 3.17-1.46.88.19 2.1.14 3.66-.13l1.18-.47c.75.13 1.5.12 2.29-.02l-.03-.12 1.32.28 3.1-1.18.86-.16.88-.03c-.02-.12.12-.27.43-.45l.14.1.12-.02.72-.26c1.93-.08 2.91-.04 2.94.12l.5-.09.1-.14.12-.02c.12.23.4.3.8.24l.5-.09.02-.04.63 3.57zm-10.09-57.2l-.55-.07-1.86.96-.02-.12-1.54.65h-.76l-.47.22-.43-.3-.37.06-.3.43-1.16-.05-1.8.58c-.33-.2-.98-.26-1.93-.17l-.55.48-.69-.26-.59.23-.51-.04-.84.28-2.02.1-2 .86-1.77.06-.72.25-1.97.35-1.04.56-.9-.1-.35.2-.9-.1-.13.02-.1.15-1.79-.07-.47.21-1.27-.03-1.42.63-.37.07-1.02-.07-.1.14-1.13.07-.45.34-.54-.16-1.35.23-.92.55-.13.02-.14-.1-1.88.84-1.34-.4-.96.17-.6-3.45 1.3-.36 1.54.11c1-.4 1.58-.76 1.71-1.06l.69.26a2.7 2.7 0 001.69-1.19c.36.02.73.17 1.1.44 1.44.07 2.18.19 2.22.37l.94-.42.14.1.13-.02.7-.37 1.37-.12 3.56-1.39 3.14-.17 1.83-.45.14.1.47-.2 1.48-.27 1.69.21.98-.17 1.17-.59.12-.02c1.09-.2 1.85-.2 2.28-.02l.82-.4 2.5-.19c-.02-.12.54-.35 1.66-.67l1.13-.07 1.48-.26c2.15-.38 3.32-.76 3.48-1.13h.03l.66 3.72zm18.76 1.7l.32.23.68.45.28-.05-.15 2.37 1.7 2.94 1.33.94 1.05 5.97c.65.42 1.8 2.56 3.45 6.44l1.34.93-.22.33.2 1.14.47 1.09-.07 1.19 2.62 4.8-.3.06 1.1 1.26-.6 1.6c.66-.12 1.43.92 2.32 3.11l.08 2.02c.1.57 1.05 1 2.85 1.27l1.24 2.13-1 1.03-.27.05-.93-.4-.59.1-3.49 1.79-.28.05-1.18-.08-1.1.48-.58.1-1.57-.61-5.81 1.91c-.99.18-1.83-.16-2.53-1.01l-.06-.3c1.03-.9 1.39-2.24 1.08-4l-.94-1.87.23-.36-1-2.45.22-.33-.2-1.14-2.55.45-2.18.96c-.56-.29-1.54-.3-2.93-.06l-.36-.22-.45-2.59c-.07-.36.46-.74 1.57-1.13l1.34.94 1.97-.35 1.4-.56-1.72-4.68-.02-1.74c-.58.1-1.61-1.87-3.1-5.9l.15-.91-4.16-8.66.13-.88-.73-2.54c-.06-1.15.4-1.82 1.4-2l1.46.04 9.09-3.35zm-11.93 12.07l.27-.05.43.81-.13.88.78 2.81c.44 2.49.23 4.58-.64 6.27.42 2.38.13 5.17-.87 8.37l.43.79.07 2.05.63 1.95-.81.43.57 1.64-.43 2.42.05.28c.3 1.66 1.7 2.4 4.2 2.21l.55-.1.05.28c.4 2.28-.05 3.53-1.36 3.76l-3.42.6a3.26 3.26 0 01-2.15-.5l-3.82 1.56c-.74.13-1.6-.8-2.55-2.79l-.1-.55c2.28-.4 3.23-1.65 2.86-3.74 1.44-2.05 2.51-5.36 3.23-9.93l-.43-.82 1.25-11.07.49-.69-.43-.78a7.71 7.71 0 011.28-6.1zm27.5-19.48c-.5-.06-.75-.14-.77-.25l-.94.42-.15-.1-.12.02-.7.38-1.37.12-3.57 1.39-3.14.17-1.82.45-.15-.1-.47.2-1.48.27-1.68-.21-.99.17-1.16.59-.13.02c-1.08.19-1.84.2-2.28.02l-.82.4-2.5.19c.02.12-.53.34-1.66.67l-1.13.07-1.48.26c-2.15.38-3.31.76-3.48 1.12l-.61.11-3.8.04-.72.25h-1.4l-2.17.63-.5.09-1.76.82c-.9.15-1.53-.07-1.9-.69.3-.68.4-1.38.28-2.07l-.21-.47c-.1-.58.42-.97 1.57-1.17l2.65-.09c.26-.3.6-.49 1.04-.56l.5-.09c.4-.07.67 0 .8.24l3.38-.98 2.71.29 1.86-.97.03.13 1.53-.65.76-.01.47-.21.44.3.37-.06.3-.44 1.15.05 1.8-.57c.34.2.98.25 1.94.17l.55-.48.68.26.6-.23.5.04.85-.28 2.01-.1 2-.86 1.77-.06.72-.25 1.97-.35 1.04-.56.9.09.35-.19.91.1.12-.03.1-.14 1.8.07.46-.21 1.28.02 1.41-.63.37-.06.48.04.61 3.45zm9.97 56.56l-.45-.04-3.36 1.1-.14-.1-.6.23h-.76l-1.8.58c-.64.1-1.4.11-2.28.02l-.12.02c-.27.3-.53.47-.8.52l-.37.06c-.5.1-1.03-.07-1.6-.47l-1.44.5-.52-.03-.47.2-.98.18c-.41.41-.76.64-1.02.69l-1 .05-.13.02-.1.15-.68-.27-.68.5-.78-.11c-.26.3-.61.49-1.04.56l-.37.07-1.05-.2c-1.64.3-3.22.7-4.74 1.22-.76.13-1.46 0-2.1-.4.06.34-.48.64-1.61.93h-.76l-.82.4a6.09 6.09 0 01-2.06-.14l-.12.02-.1.14-2.75.23c-1.05.19-1.68.47-1.89.84l-.24.05-.56-.29-.7.38-.14-.1-.37.07c-.48.25-1.45.55-2.89.89l-.95-.35-.02-.12.1-.14c.31-.18.45-.34.43-.46l-.02-.12-.44-.3.1-.91-.02-.12c-.03-.17-.17-.23-.42-.19l-.08-.49.34-.95a7.52 7.52 0 012.52-.06c.95-.17 1.54-.44 1.76-.82l.62-.1h2.16l.37-.07 1.29-.61c1.79-.04 2.86.02 3.2.2l.5-.1c.4-.06.63-.23.67-.5l.12-.01.15.1.49-.09c-.03-.16.88-.53 2.72-1.11l.76-.01.13-.02.1-.15c.35.07.53.16.56.29l.84-.28.86-.15 3.3.05 1.15-.71.02.12c.78-.13 1.5-.39 2.15-.76l1.28.03c1.56-.27 2.72-.65 3.48-1.12 1.74.29 2.9.38 3.48.28l.61-.11c.93-.5 1.84-.88 2.72-1.12l.44.3.37-.06-.05-.24.37-.07c.05.25.27.33.68.26l.25-.04.1-.15.68.26.37-.06c.14-.2.45-.33.94-.42l.51-.72 2.12.16.58 3.3zm-5.4-52.8c4.4-.26 6.61-.28 6.66-.03l.78-.42c1.17.38 2.33.47 3.5.27l.49-.69 1.1-.2 2.48-.72c1.36.04 2.18.87 2.47 2.49l-.13.88-1.14.2c-1.48.26-1.87 2.35-1.18 6.27l.1.58.87 3.3-.28.05c.7.67 1.32 2.1 1.9 4.3.1.56-.13.88-.68.98l-.22.36.05.27.52 1.34-.13.91.72 2.48.4 2.24c.2.92.47 1.35.8 1.29l-.5 7.04 1.15 1.54-.3.05 1.98 4.57-.84.15c-.8.14-1.66.78-2.58 1.91l-.27.05a5.05 5.05 0 01-3.28-.6l-1.42.26-2.15.95-4.86.28-1.65.58-.7-.74-.1-.55c-.08-.47.86-1.22 2.81-2.24l.11-2.62a7.72 7.72 0 00-1.5-3.51c-.2-1.83 0-3.41.62-4.74l-.47-1.06.12-.91-1.12-1.52-.29-4.87a23.33 23.33 0 00-1.97-6.31l.63-1.29-.05-.28-.98-.68.23-.33-.35-1.97-.57-1.64.23-.33-.05-.27c-.43-2.44-1.87-3.45-4.31-3.02l-.33-.23-.1-.55c1.2-1.95 2.46-3.04 3.78-3.27zm30.86 24.07c1.77.16 2.8 1.14 3.12 2.94l.35 1.97c-.94.17-1.32.8-1.12 1.91l2.4 5.38.06.28c.21 1.23 0 2.14-.67 2.72l-3.17-1.47-6.65 1.74c-1.1.2-1.76-.26-1.95-1.37l-.1-.58c-.05-.27.99-.93 3.1-1.98-.13-.76.21-1.59 1.03-2.5l1.62-2.31.08-1.16-.33-.26-.05-.27 1.04-2.22c-.2-1.7.22-2.64 1.24-2.82zm1.12-34.5c-.44.37-1.12.64-2.04.8l-1.15-.04c-.58.1-1.02.26-1.32.48l-1.37.12-1.1.2-.11.14-1.03-.08-.47.21-.39-.05-.67.5-2.04-.03-2.44.56a7.62 7.62 0 01-2.65.09c-.74.72-1.26 1.1-1.57 1.16l-.37.07-2.43-.08-1.72.3-.82.4-2.13.12c-.4.07-.97.38-1.74.94-.4.07-1.02-.11-1.88-.55l-.24.04-.3.43-.13.02-.04-.24-.13.02c-.25.38-.5.6-.77.64l-1 .06-.11.14c-.12-.23-.4-.31-.8-.24-1.23.24-1.83.43-1.8.57l-1.43-.13-.71.26-.13.02c-.24.04-.5-.46-.77-1.52l-.12.03c-.17-1.41.16-2.2.98-2.34l1.07-.44c.03.17.16.23.4.18l.97-.3.02.13c.74-.24 1.25-.5 1.52-.77.83.02 1.44.16 1.85.43l.47-.21.4.06.96-.3.14.1.6-.23.36-.06 1.75-.18.1-.15.12-.02.79.11 2.15-.76.37-.06 1.02.07.62-.1c.6-.11 1.31-.36 2.15-.77l.4.06 1.7-.43.48-.08 2.06.14a13.85 13.85 0 012.85-1.13c.04.24.23.34.55.28l.72-.25 1-.05.11-.15.14.1.13-.02c1.5-.26 3.07-.71 4.71-1.34l1.44.25 1.56-.52.66-.03.6 3.42zm10 56.69c-.3-.03-.7-.03-1.17.01l-2 .87-1 .17-1.12.07-.12.02-.1.15-1.38.11-.62.11-.41-.18-.37.07-.7.37-.4-.18c.02.17-.82.44-2.53.83-.19-.14-.7-.17-1.54-.11.03.16-.32.35-1.04.56-.04-.2-.52-.29-1.44-.25l-1.36.24-.8.52-2.67-.04-.81.4-.13.02-.14-.1-.82.4h-2.16l-.92.54-.12.02-.15-.1-1.8.57-1.8-.18-2.38.92-2.37.3-.96.29c-.02-.15-.45-.15-1.27-.03l-.86.15-.3-.2-.04-.25.08-1.03-.07-.37-.31-.32-.09-.5c-.1-.57.17-.95.81-1.15 1.6-.2 2.48-.23 2.65-.09l.13-.02.1-.15.53.16c-.05-.3 1.14-.73 3.59-1.26l2.18.12.49-.09.1-.14.15.1.24-.04.6-.23.76-.01.49-.09 1.56-.53 1.4.01 1.22-.22 1.18.18 1.66-.68.12-.02 1.13-.07 1.64-.8 1.54.11 1.23-.21.1-.15.14.1.5-.08 1.13-.08 3.62-1.02.4.06.34-.19.52.04.12-.02.1-.15.89-.03 1.43-.5 2.01-.1.73-.36.66 3.73zm6.92-54.88l.36.22 1.66-.3c.09.52.64.91 1.66 1.18l.58 1.64c-2.05.36-2.96 1.2-2.73 2.51l-.24 2.07.36.23.05.27-.57 1.85.43.78-.13.91c.53 3 1.27 4.41 2.2 4.24l.08 2.02.89 5.05.75 1.04-1 4.24 2.89 6.44.34 1.97.03 1.74c.06.37 1.16 1.14 3.29 2.3L207.45 60a9.73 9.73 0 01-4.52-.94l-3.5 1.5a9.47 9.47 0 00-3.84-.5l-1.77 1.5-1.7.29c-1.37.24-2.69-.1-3.95-1.05l-.1-.58 2.5-2.16.69-2.75-.72-2.48c-.17-.94-.07-1.45.3-1.51l-1.4-4.67.23-.33-.04-.28-1.16-3.28-.69-3.94-.33-.23.23-.33-.1-.55c-.16-.95-.44-1.38-.83-1.31l.35-4.7-.86-1.6-.14-4.03c-.23-1.35-1.49-2.4-3.75-3.11l-.62-1.92-.05-.28a65.6 65.6 0 019.64-2.88l.23-.32 3.16-.27c2.03-.47 3.03-.83 2.98-1.1zm6.37-5.44l-.24.1-1.89.09-.1.14-.12.02-1.05-.2-2.03.74-.9-.09-.1.14-.13.03-.9-.1-2.5.95-.93-.22-1.35.24c-.88.28-1.3.53-1.27.73-.75.05-1.14 0-1.17-.17-.8.23-1.28.44-1.41.63-1.74.22-2.62.25-2.65.09l-.33.3-.78-.1-.37.06-.33.3-.61.12-1.33.36-.15-.1-.12.02-1.09.32-.98.17-.3-.01-.7-3.97 1.3-.01.85-.27.14.1.13-.03.47-.2.39.05.35-.19 3.75-.28 1.09-.32.5-.08.1-.15.14.1 1.23-.21 1.41-.63 1.81.19 1.09-.32.12-.02 1.79.06 1.04-.56 1.23-.22 1.31-.49 1.65-.03.49-.09.72-.25.63.01.25-.04.1-.15.15.1.49-.08.47-.21.64 3.63zm10 56.12l-.92.25-.14-.1-.12.02c-.2.2-.83.49-1.89.84l-.9-.1-.72.26c-1.16.12-1.77.02-1.83-.3-.47.58-1.08.94-1.84 1.08-1.6.03-3.23.18-4.87.47l-.92.55-.37.06c-.43.08-.82.02-1.17-.17l-.7.37-.8-.23-.55.47-.14-.1-.13.02-.96.3c-.27.05-.66-.05-1.2-.3l-.98.18-.51-.04-.47.21-1.52.02c-.4.57-.86.9-1.35 1l-.67-3.63c.61-.24 1.48-.66 2.6-1.28.87.18 2.1.13 3.65-.14l1.19-.47c.74.13 1.5.12 2.28-.02l-.02-.12 1.32.28 3.09-1.18.86-.16.88-.03c-.02-.12.13-.27.43-.45l.15.1.12-.02.72-.25c1.93-.1 2.9-.05 2.94.11l.49-.09.1-.14.12-.02c.13.23.4.3.8.24l.5-.09c.25-.28 1.17-.68 2.77-1.22l.67 3.82zm-3.54-52.94l4.2.43 1.73-.3a22.47 22.47 0 015.6-1.88l.2 1.17c-.62 1-.9 1.73-.81 2.2l.7 2.23-.24.36.04.28 1 2.2.6 3.42c-.58 1.16-.8 2.09-.68 2.78l.1.59 2.43 3.7-1.07 4.02 1.82 2.06.05.28v3.27l.97 5.44.7.77.25 1.41.03 1.78.33.26.05.27-.15 2.38.96 2.2-6.71 2.08-2.97-.08-1.11.51-1.47-.05-1.9.93-.91-.12-.81.43c-.48-.4-.93-1.31-1.37-2.71 1.72-.3 2.32-1.99 1.78-5.04l-.1-.59-.77-2.53-.45-4.36-.66-3.73-1.78-3.24-.2-1.14c.33-.43.39-2.91.19-7.42l.4-.96-.86-1.63-.08-2.05c-1.06-3.74-2.15-5.52-3.28-5.32-.7.12-1.25-.17-1.65-.88-.16-.93 1.73-1.96 5.67-3.1l.23-.32zm16.67-2.66l4.54 2.15c2.17-.38 4.85.83 8.03 3.63 1.54 3.48 2.9 5.1 4.1 4.9.57 2.05 1.08 3.24 1.52 3.57l.4 2.3.18 2.61.48 1.12-.35 1.24.75 1.04c-.36 7.55-1.34 11.47-2.94 11.75l.53 1.4c-1.5.54-3.07 2.3-4.68 5.27-3.54 1.2-5.44 2.12-5.7 2.78-1.54.27-2.51-.74-2.92-3.04l3.1-2.6-.1-.6.27-.04-1.8-8.57-.8-4.59-.08-2.05-.33-.22-.46-.81-.27.05.28-1.83-.61-1.67.26-.33.27-.05-.68-2.26c.34-.59.37-2.07.1-4.46l-1.06-.99.07-1.18c-.28.05-.9-.64-1.82-2.06l.13-.91-.58-1.68.27-.05-.43-.8-1.72.3-.45-2.56 2.5-.76zm29.9 48.33l-.88.34-.8-.24-.35.2-.52-.04-.94.42-.14-.1-1.11.19-1.33.36c-.36-.1-.83-.1-1.4 0l-1.07.44a4.1 4.1 0 01-2.3-.1l-1.04.56-1.25.1-.13.01-.1.15-.78-.12-.78.65-2.03-.02-.94.42-.54-.16-.47.2-.12.03-.3-.2c-1.1.19-1.84.53-2.22 1.02l-.52-.03-.59.23c-.03-.17-.58-.2-1.67-.09l-.34.19-1.67-.09-.92.54-.98.18-.47.2c-1.25.12-1.9.07-1.94-.16l-2.52.83-2.23.26-1.93.6-1.79-.07-2.58.46c-.12.17-.6.38-1.42.63h-.76l-.23.14-.72-4.1 2.79-.04c.45-.08.88-.28 1.28-.6a3.2 3.2 0 011.55.1l1.9-.71 2.88-.26-.03-.12.25-.04.41.18.94-.42.62-.11.78.11 2.05-.61 1.79.06.96-.3 1.38-.1 1.41-.64.52.04 4.36-1.15.15.1.84-.28.51.04c.28.27.65.42 1.1.44.78-.37 1.16-.6 1.14-.7l1.13-.08c.39-.32.77-.52 1.16-.59l.5-.08.78.11.96-.3 1.65-.03 1.26-.73c1.78.02 3.41-.1 4.89-.35l.12-.03.1-.14.15.1.96-.3h.76a.59.59 0 00.18-.07l.65 3.67zm-9.88-56.08l-1.73.09-2 .86-1.77.06-.72.25-1.97.35-1.04.56-.9-.1-.35.2-.91-.1-.12.02-.1.15-1.8-.07-.46.21-1.28-.03-1.41.63-.37.07-1.03-.08-.1.15-1.13.07-.45.33-.53-.16-1.36.24-.92.55-.12.02-.15-.1-1.88.84-1.34-.4-1.1.2-1.21.33-.3-.2-.2.3-1.5.13-1.23.22-.63-.02-.3.43-1.18-.17-.47.21-.13.02-.14-.1-.67.5h-1.4l-.84.27-1.81-.19-3.36 1.1-.15-.1-.59.23h-.76l-.21.08-.65-3.7c.09.14.3.17.62.12l.25-.05.1-.14.68.26.37-.07c.13-.19.45-.33.94-.42l.5-.72 3.6.25.13-.02 1.47-1.02.14.1 1.11-.2c.13-.02.28.13.46.43l2.64-.84a5.2 5.2 0 001.77-.06c.35-.06.7-.25 1.04-.57l.8.24.62-.1 1.33-.37 1.54.11c1.01-.4 1.58-.76 1.72-1.06l.68.26a2.7 2.7 0 001.7-1.19c.36.02.72.17 1.09.44 1.45.06 2.19.19 2.22.37l.94-.42.15.1.12-.02.7-.37 1.37-.12 3.57-1.39 3.14-.17 1.82-.45.15.1.47-.21 1.48-.26 1.68.21.99-.17.08-.05.6 3.32z" fill="#C45742" fill-rule="nonzero"/></svg>